<?xml version="1.0" encoding="UTF-8"?>
<svg id="icon" xmlns="http://www.w3.org/2000/svg" width="500" height="500" viewBox="0 0 500 500">
  <path d="M397.18,33.95H102.82c-10.42,0-18.86,8.45-18.86,18.86v400.29c0,10.42,8.45,18.86,18.86,18.86h294.35c10.42,0,18.86-8.45,18.86-18.86V52.81c0-10.42-8.45-18.86-18.86-18.86ZM189.41,434.47h-64.97v-64.97h64.97v64.97ZM189.69,341.13h-64.97v-64.97h64.97v64.97ZM124.44,248.66v-64.97h64.97v64.97h-64.97ZM282.48,434.47h-64.97v-64.97h64.97v64.97ZM282.77,341.13h-64.97v-64.97h64.97v64.97ZM217.52,248.66v-64.97h64.97v64.97h-64.97ZM374.92,434.47h-64.97v-64.97h64.97v64.97ZM375.2,341.13h-64.97v-64.97h64.97v64.97ZM309.95,248.66v-64.97h64.97v64.97h-64.97ZM381.41,148.44H118.59v-79.85h262.81v79.85Z"/>
</svg>