<?xml version="1.0" encoding="UTF-8"?>
<svg id="icon" xmlns="http://www.w3.org/2000/svg" width="500" height="500" viewBox="0 0 500 500">
  <defs>
    <style>
      .cls-1 {
        fill: #fff;
      }
    </style>
  </defs>
  <path class="cls-1" d="M145.32,119.28c0-8.28-6.72-15-15-15h-43.44c-8.28,0-15,6.72-15,15v13.08h73.44v-13.08Z"/>
  <path class="cls-1" d="M435.64,148.44H64.52c-11.05,0-20,8.95-20,20v224c0,11.05,8.95,20,20,20h134.87c-23.55-22.85-38.19-54.83-38.19-90.23,0-69.44,56.29-125.73,125.73-125.73s125.73,56.29,125.73,125.73c0,35.4-14.64,67.38-38.19,90.23h61.16c11.05,0,20-8.95,20-20v-224c0-11.05-8.95-20-20-20ZM420.18,196.8c-7.85,0-14.22-6.37-14.22-14.22s6.37-14.22,14.22-14.22,14.22,6.37,14.22,14.22-6.37,14.22-14.22,14.22Z"/>
  <path class="cls-1" d="M286.85,220.18c-55.87,0-101.15,45.29-101.15,101.15s45.29,101.15,101.15,101.15,101.15-45.29,101.15-101.15-45.29-101.15-101.15-101.15ZM287.06,398.92c-41.85,0-75.78-33.93-75.78-75.78s33.93-75.78,75.78-75.78,75.78,33.93,75.78,75.78-33.93,75.78-75.78,75.78Z"/>
</svg>