<?xml version="1.0" encoding="UTF-8"?>
<svg id="icon" xmlns="http://www.w3.org/2000/svg" width="500" height="500" viewBox="0 0 500 500">
  <path d="M236.53,332.61c-34.04-5.51-61.2-31.55-68.36-65.01h0s-52.99-173-52.99-173c-43.44,37.72-70.91,93.35-70.91,155.41,0,86.15,52.95,159.92,128.08,190.56l64.16-107.95h.02Z"/>
  <path d="M181.45,202c15.14-21.58,40.19-35.7,68.55-35.7,3.36,0,6.66.22,9.91.6l-.03-.02h177.03l1.94,1.4c-31.62-72.97-104.27-124.03-188.86-124.03-50.14,0-96.08,17.94-131.78,47.75l1.18,2.19,62.05,107.8Z"/>
  <path d="M440.9,173.16l-125.53,24.59c11.46,14.32,18.33,32.48,18.33,52.25,0,23.5-9.7,44.72-25.29,59.93h.03s-125.97,134.46-125.97,134.46c21.16,7.35,43.88,11.35,67.53,11.35,113.63,0,205.74-92.11,205.74-205.74,0-27.16-5.28-53.09-14.84-76.84Z"/>
  <circle cx="250" cy="250" r="64.93"/>
</svg>