<?xml version="1.0" encoding="UTF-8"?>
<svg id="icon" xmlns="http://www.w3.org/2000/svg" width="500" height="500" viewBox="0 0 500 500">
  <defs>
    <style>
      .cls-1 {
        fill: #fff;
      }
    </style>
  </defs>
  <path class="cls-1" d="M463.44,195.19l-4.32,26.64s-8.64-90.72-33.84-113.76l7.92,35.28s-24.84-40.68-56.88-57.6c0,0-57.6-55.44-160.56-41.76,0,0-84.96,15.84-121.68,64.8,0,0-5.76-4.32-10.08-27.36,0,0-27.36,25.92-21.6,75.6,0,0-27.36,41.76-27.36,76.32l9.36-19.08s-10.08,38.16-6.12,73.08l3.24-14.76s8.36,60.04,41.04,102.6c30.96,40.32,81.2,86.4,167.32,82.8,0,0,143,6.48,191.24-124.56,0,0,30.96-70.56,22.32-138.24ZM392.52,173.59c11.52,50.4-2.88,83.52-2.88,83.52-1.44-10.08-13.32-17.64-13.32-17.64v28.44c.36,51.48-23.04,64.44-23.04,64.44,6.12-18.36,5.76-31.68,5.76-31.68-35.64,60.84-87.12,57.6-87.12,57.6-35.64,0-76.56-33.48-76.56-33.48,4.56.96,14.4.96,14.4.96,25.68.72,42.48-10.08,42.48-10.08,0,0,22.32-13.92,24.72-16.08,2.4-2.16,6.48-1.68,6.48-1.68,0,0,6.24.96,10.08,0,3.84-.96,3.36-6,3.36-6-1.2-8.4-10.08-12.96-10.08-12.96-8.4-7.44-21.6-6.96-21.6-6.96-11.04-.96-25.44,5.52-25.44,5.52-9.36,5.52-19.92,6.24-19.92,6.24-13.44,1.44-19.68-3.12-19.68-3.12l-21.6-14.64c-6.96-5.52-7.68-15.6-7.68-15.6-.48-13.44,10.32-18.48,10.32-18.48,1.92-2.16,7.68-1.2,7.68-1.2l15.84,6c.96-13.44-1.92-25.2-1.92-25.2-1.44-3.6.48-7.44.48-7.44l31.92-21.84c6.96-2.4,8.88-11.76,8.88-11.76l.24-6.96c0-3.84-4.56-4.08-4.56-4.08l-33.6-.96c-18.24-5.76-19.92-18-19.92-18-.72-21.84,29.04-42,29.04-42-35.28.24-54.48,21.36-54.48,21.36-1.68,3.6-5.04,2.18-5.04,2.18,0,0-8.88-3.62-19.92-3.14-11.04.48-13.92,2.64-22.32,3.12-8.4.48-12.24-6.72-12.24-6.72,51.84-59.76,130.32-66.24,130.32-66.24,64.8-9.36,127.44,33.12,127.44,33.12-30.24-7.92-59.76-4.32-59.76-4.32,37.44,1.44,59.4,20.16,59.4,20.16-23.4-.36-41.04,6.84-41.04,6.84,83.52,16.2,92.52,88.2,92.52,88.2-3.6-11.88-17.64-19.44-17.64-19.44Z"/>
</svg>