<?xml version="1.0" encoding="UTF-8"?>
<svg id="Layer_1" data-name="Layer 1" xmlns="http://www.w3.org/2000/svg" width="500" height="500" viewBox="0 0 500 500">
  <defs>
    <style>
      .cls-1 {
        fill: #fff;
      }
    </style>
  </defs>
  <path class="cls-1" d="M468.99,340s-30-179-50.06-210.26-60.78-36.41-60.78-36.41c0,0-19.16-7.34-38.16,16.66-17.44,22.03-62.7,25.52-69.99,25.95-7.3-.42-52.55-3.91-69.99-25.95-19-24-38.16-16.66-38.16-16.66,0,0-40.72,5.15-60.78,36.41-20.06,31.26-50.06,210.26-50.06,210.26,0,0-1.44,68.95,26.28,82.97s124.97-82.51,124.97-82.51c0,0,19.74-17.46,67.74-17.46,48,0,67.74,17.46,67.74,17.46,0,0,97.25,96.54,124.97,82.51s26.28-82.97,26.28-82.97ZM250.44,213.48c-13.12,0-23.76-10.64-23.76-23.76s10.64-23.76,23.76-23.76,23.76,10.64,23.76,23.76-10.64,23.76-23.76,23.76Z"/>
</svg>