<?xml version="1.0" encoding="UTF-8"?>
<svg id="Layer_3" data-name="Layer 3" xmlns="http://www.w3.org/2000/svg" width="500" height="500" viewBox="0 0 500 500">
  <path d="M433,156c-18.12-43.32-68-62-68-62,0,0-19-4.63-31,9-17.73,20.14-83,26-83,26,0,0-65.27-5.86-83-26-12-13.63-31-9-31-9,0,0-54.76,10.04-68,62,0,0-28,86-38,190,0,0,0,73,30,78s127-89,127-89l63-1,63,1s97,94,127,89,30-78,30-78c-10-104-38-190-38-190ZM250.44,213.48c-13.12,0-23.76-10.64-23.76-23.76s10.64-23.76,23.76-23.76,23.76,10.64,23.76,23.76-10.64,23.76-23.76,23.76Z"/>
</svg>