<?xml version="1.0" encoding="UTF-8"?>
<svg id="Layer_1" data-name="Layer 1" xmlns="http://www.w3.org/2000/svg" width="500" height="500" viewBox="0 0 500 500">
  <defs>
    <style>
      .cls-1 {
        fill: #fff;
      }
    </style>
  </defs>
  <path class="cls-1" d="M200,328.23c-1.8-4.67-3.19-9.93-4.18-15.77-.99-5.84-1.48-11.36-1.48-16.58,0-8.26.81-15.81,2.43-22.64,1.62-6.83,4.04-13.25,7.28-19.27,3.23-6.02,7.28-11.77,12.13-17.25,4.85-5.48,10.51-10.92,16.98-16.31,6.83-5.75,12.8-11.09,17.92-16.04,5.12-4.94,9.48-9.88,13.07-14.82,3.59-4.94,6.29-10.06,8.09-15.36,1.79-5.3,2.7-11.19,2.7-17.65,0-5.57-.99-10.73-2.96-15.5-1.98-4.76-4.81-8.85-8.49-12.26-3.68-3.41-8.18-6.11-13.48-8.09-5.3-1.98-11.19-2.96-17.65-2.96-14.02,0-28.57,2.92-43.66,8.76-15.09,5.84-29.38,14.69-42.86,26.55v-81.13c13.83-8.26,28.93-14.46,45.28-18.6,16.35-4.13,33.24-6.2,50.67-6.2s32.25,1.84,46.63,5.53c14.37,3.69,26.91,9.48,37.6,17.38,10.69,7.91,19.04,18.02,25.07,30.32,6.02,12.31,9.03,27.09,9.03,44.34,0,10.96-1.26,20.89-3.77,29.78-2.52,8.89-6.2,17.3-11.05,25.2-4.85,7.91-10.87,15.5-18.06,22.78-7.19,7.28-15.46,14.78-24.8,22.51-6.29,5.21-11.82,10.07-16.58,14.55-4.76,4.49-8.72,8.94-11.86,13.34-3.15,4.41-5.53,9.08-7.14,14.02-1.62,4.94-2.43,10.56-2.43,16.85,0,4.31.58,8.72,1.75,13.21,1.17,4.49,2.74,8.27,4.72,11.32h-70.89ZM239.35,446.28c-14.38,0-26.33-4.31-35.85-12.94-9.53-8.98-14.29-19.58-14.29-31.8s4.76-23.09,14.29-31.54c9.52-8.44,21.47-12.67,35.85-12.67s25.96,4.22,35.31,12.67c9.34,8.27,14.02,18.78,14.02,31.54s-4.58,23.63-13.75,32.07c-9.34,8.44-21.2,12.67-35.58,12.67Z"/>
</svg>