<?xml version="1.0" encoding="UTF-8"?>
<svg id="Layer_1" data-name="Layer 1" xmlns="http://www.w3.org/2000/svg" width="500" height="500" viewBox="0 0 500 500">
  <defs>
    <style>
      .cls-1 {
        fill: #fff;
      }

      .cls-2 {
        fill: none;
        stroke: #fff;
        stroke-miterlimit: 10;
        stroke-width: 40px;
      }
    </style>
  </defs>
  <path class="cls-1" d="M215.89,303.77c-1.26-3.27-2.23-6.95-2.92-11.04-.69-4.09-1.04-7.95-1.04-11.6,0-5.78.57-11.07,1.7-15.85,1.13-4.78,2.83-9.27,5.09-13.49,2.26-4.21,5.09-8.24,8.49-12.07,3.4-3.84,7.36-7.64,11.89-11.41,4.78-4.02,8.96-7.76,12.55-11.23,3.58-3.46,6.63-6.92,9.15-10.38,2.51-3.46,4.4-7.04,5.66-10.75,1.26-3.71,1.89-7.83,1.89-12.36,0-3.9-.69-7.51-2.08-10.85-1.39-3.33-3.37-6.19-5.94-8.58-2.58-2.39-5.73-4.27-9.43-5.66-3.71-1.38-7.83-2.08-12.36-2.08-9.81,0-20,2.05-30.56,6.13-10.57,4.09-20.57,10.28-30,18.58v-56.79c9.68-5.78,20.25-10.12,31.7-13.02,11.44-2.89,23.27-4.34,35.47-4.34s22.58,1.29,32.64,3.87c10.06,2.58,18.84,6.64,26.32,12.17,7.48,5.54,13.33,12.61,17.55,21.23,4.21,8.62,6.32,18.96,6.32,31.04,0,7.67-.88,14.62-2.64,20.85-1.76,6.23-4.34,12.11-7.74,17.64-3.4,5.54-7.61,10.85-12.64,15.94-5.03,5.09-10.82,10.35-17.36,15.75-4.4,3.65-8.27,7.05-11.6,10.19-3.33,3.15-6.1,6.26-8.3,9.34-2.2,3.08-3.87,6.35-5,9.81-1.13,3.46-1.7,7.39-1.7,11.79,0,3.02.41,6.1,1.23,9.24.82,3.15,1.92,5.79,3.3,7.92h-49.62ZM243.44,386.41c-10.06,0-18.43-3.02-25.09-9.06-6.67-6.29-10-13.71-10-22.26s3.33-16.16,10-22.07c6.67-5.91,15.03-8.87,25.09-8.87s18.17,2.96,24.72,8.87c6.54,5.79,9.81,13.14,9.81,22.07s-3.21,16.54-9.62,22.45c-6.54,5.91-14.84,8.87-24.9,8.87Z"/>
  <circle class="cls-2" cx="250" cy="250" r="205.47"/>
</svg>