<?xml version="1.0" encoding="UTF-8"?>
<svg id="Layer_2" data-name="Layer 2" xmlns="http://www.w3.org/2000/svg" width="500" height="500" viewBox="0 0 500 500">
  <path d="M250.4,33.81h0c-.13-.01-.27,0-.4,0-.13,0-.27,0-.4,0h0c-80.15.44-145,65.54-145,145.8,0,57.95,33.81,108,82.77,131.51,0,0,11.19,3.49,11.19,18.61l2.16,17.28s-1.08,36.2,11.88,36.2h74.8c12.96,0,11.88-36.2,11.88-36.2l2.16-17.28c0-15.12,11.19-18.61,11.19-18.61,48.97-23.51,82.77-73.56,82.77-131.51,0-80.26-64.85-145.36-145-145.79Z"/>
  <rect x="202.3" y="395.24" width="95.4" height="41.76" rx="17.64" ry="17.64"/>
  <path d="M274.21,443.24h-48.42c-6.98,0-12.64,5.66-12.64,12.64s5.66,12.64,12.64,12.64h48.42c6.98,0,12.64-5.66,12.64-12.64s-5.66-12.64-12.64-12.64Z"/>
</svg>