<?xml version="1.0" encoding="UTF-8"?>
<svg id="icon" xmlns="http://www.w3.org/2000/svg" width="500" height="500" viewBox="0 0 500 500">
  <path d="M467.88,291.84s4.32-85.32-19.44-119.88c0,0,25.92-42.12,10.8-101.68-18.05-71.1-168.48,0-168.48,0l-5.4.16s-155.52-10.8-205.2,145.8c0,0,35.64-46.44,76.68-56.16,0,0-114.48,116.64-125.28,214.92-10.8,98.28,64.8,95.04,64.8,95.04,0,0,49.68,2.16,93.96-29.16,0,0,34.55,20.01,78.84,20.52,93.96,1.08,170.64-64.8,187.92-129.6h-99.36s-31.32,43.2-77.76,43.2-91.8-30.24-90.72-83.16h278.64ZM449.52,85.56c14.15,31.46-6.48,74.52-6.48,74.52-37.8-70.2-101.09-82.43-101.09-82.43,0,0,87.93-35.76,107.57,7.91ZM276.72,154.68c84.24,0,89.64,79.92,89.64,79.92h-177.12s3.24-79.92,87.48-79.92ZM63.96,425.76c-13.05-39.05,23.76-99.36,23.76-99.36,14.04,72.36,74.52,99,74.52,99,0,0-84.35,42.05-98.28.36Z"/>
</svg>