<?xml version="1.0" encoding="UTF-8"?>
<svg id="icon" xmlns="http://www.w3.org/2000/svg" width="500" height="500" viewBox="0 0 500 500">
  <defs>
    <style>
      .cls-1 {
        fill: #fff;
      }
    </style>
  </defs>
  <path class="cls-1" d="M88.85,283.5s2.88-106.56,107.28-149.76c0,0-23.76,35.28-29.52,71.64l164.16.2s10.8-96.32-94.32-99.92c0,0-115.92.72-200.88,114.48h-4.54C47.6,107.38,138.72,21.14,248.65,21.14c121.68,0,220.32,105.65,220.32,235.98,0,8.92-.48,17.72-1.38,26.38H169.49s-5.64,95.04,124.32,100.8c75.84,3.36,122.96-35.52,122.96-35.52l.88,96s-60.48,34.56-138.72,34.08-130.08-44.16-130.08-44.16c0,0-67.2-54-60-151.2Z"/>
</svg>