<?xml version="1.0" encoding="UTF-8"?>
<svg id="icon" xmlns="http://www.w3.org/2000/svg" width="500" height="500" viewBox="0 0 500 500">
  <path d="M250,44.26c-113.63,0-205.74,92.11-205.74,205.74s92.11,205.74,205.74,205.74,205.74-92.11,205.74-205.74S363.63,44.26,250,44.26ZM301.32,425.06c-45.65,0-80.79-25.12-99.79-42.69-34.76-24.67-58.53-74.54-58.53-132.03,0-50.87,18.61-95.76,46.97-122.52,14.6-15.76,54.37-52.3,109.43-52.3,70.2,0,73.44,17.28,73.44,17.28,0,0-53-22.25-102.3,11.47,50.32,12.64,88.46,73.23,88.46,146.07s-37.39,132.22-86.97,145.68c49.42,34.14,102.73,11.76,102.73,11.76,0,0-3.24,17.28-73.44,17.28Z"/>
</svg>