<?xml version="1.0" encoding="UTF-8"?>
<svg id="icon" xmlns="http://www.w3.org/2000/svg" width="500" height="500" viewBox="0 0 500 500">
  <path d="M463.94,304.78l-45.97-19.46s6.21-30.57-1.1-62.96l44.43-16.96s11.17-6.62,9.04-16.14l-17.32-42.39s-3.63-12.59-16.22-8.95l-46.31,18.64s-18.85-29.38-43.81-44.43l18.19-43.94s2.86-12.66-5.52-17.65l-42.7-16.54s-11.64-6.01-17.65,5.64l-18.26,46.46s-17.44-4.65-63.11-1.51l-18.32-43.89s-6.96-10.96-16.41-8.54l-41.84,18.61s-12.47,4.02-8.45,16.49l20.06,45.71s-33.99,24.42-43.35,44.94l-43.56-19.08s-12.6-3.12-17.76,5.16l-17.4,42.36s-6.24,11.52,5.28,17.76l46.08,19.2s-5.49,25.97-.58,62.55l-43.72,18.7s-10.9,7.05-8.39,16.48l18.98,41.68s4.13,12.43,16.56,8.31l45.54-20.46s21.43,28.58,43.33,43.43l-19.68,43.29s-3.29,12.56,4.91,17.83l42.11,17.99s11.43,6.4,17.83-5.03l19.84-45.81s37.09,6.37,62.15-.65l16.57,44.58s6.52,11.23,16.06,9.18l42.55-16.94s12.62-3.52,9.1-16.14l-18.23-46.47s28.15-20.1,43.39-45.26l43.45,19.33s12.58,3.19,17.79-5.06l17.64-42.26s6.31-11.48-5.18-17.79ZM248.78,358.8c-57.56,0-104.22-46.66-104.22-104.22s46.66-104.22,104.22-104.22,104.22,46.66,104.22,104.22-46.66,104.22-104.22,104.22Z"/>
</svg>