<?xml version="1.0" encoding="UTF-8"?>
<svg id="icon" xmlns="http://www.w3.org/2000/svg" width="500" height="500" viewBox="0 0 500 500">
  <ellipse cx="249.33" cy="142.51" rx="103.69" ry="118.44"/>
  <path d="M442.56,330.54s-6.95-23-12.42-31.68c-9.18-14.58-22.5-20.88-22.5-20.88l-25.03-10.77c-16.37-5.97-35.76-9.9-35.76-9.9,0,0-26.98,19.08-45.4,29.13-22.25,12.13-48.52,14.17-51.78,14.38-3.26-.21-29.53-2.25-51.78-14.38-18.43-10.05-45.4-29.13-45.4-29.13,0,0-19.4,3.93-35.76,9.9l-25.03,10.77s-13.32,6.3-22.5,20.88c-5.47,8.68-12.42,31.68-12.42,31.68,0,0-18,76.3-19.44,169.46h424.68c-1.44-93.16-19.44-169.46-19.44-169.46Z"/>
</svg>